inDegrees=yes
name=ik_Shooting_orientations
DataType=double
version=3
OpenSimVersion=4.3-2021-08-27-4bc7ad9
endheader
time	pelvis_tilt	pelvis_list	pelvis_rotation	pelvis_tx	pelvis_ty	pelvis_tz	hip_flexion_r	hip_adduction_r	hip_rotation_r	knee_angle_r	knee_angle_r_beta	ankle_angle_r	subtalar_angle_r	mtp_angle_r	hip_flexion_l	hip_adduction_l	hip_rotation_l	knee_angle_l	knee_angle_l_beta	ankle_angle_l	subtalar_angle_l	mtp_angle_l	lumbar_extension	lumbar_bending	lumbar_rotation	arm_flex_r	arm_add_r	arm_rot_r	elbow_flex_r	pro_sup_r	wrist_flex_r	wrist_dev_r	arm_flex_l	arm_add_l	arm_rot_l	elbow_flex_l	pro_sup_l	wrist_flex_l	wrist_dev_l
7.13	1.347134135829406	-1.345034955729275	152.485412263438	0	0.9399999999999999	0	33.4130907213944	-9.961886587775275	0	50.39756172387397	0.8796033870586701	-5.04286731426393	0	0	33.4130907213944	-9.961886587775275	0	50.39756172387397	0.8796033870586701	-5.04286731426393	0	0	9.408182780770055	-7.264745485684346	-7.291959194693976	0	-6.789821206233926	0	67.4365961666208	46.66516983816815	0	0	35.50578872505258	-35.12149328102048	36.53666001145977	0.01904546598080645	46.66516983816815	0	0
7.14	1.332217545474434	-1.332049986135756	152.4753718807868	0	0.9399999999999999	0	33.44728341026465	-9.962168787100509	0	50.42510561000472	0.8800841185604461	-5.04248117233487	0	0	33.44728341026465	-9.962168787100509	0	50.42510561000472	0.8800841185604461	-5.04248117233487	0	0	9.380975634253568	-7.227040338725805	-7.28060460097886	0	-6.804147147026794	0	67.45875880978078	46.65479213597747	0	0	40.69884366707983	-33.38042978282222	35.93339200385498	0.09495251107954589	46.65479213597747	0	0
7.15	1.330372736157922	-1.361016469321748	152.4868340609803	0	0.9399999999999999	0	33.63190867467144	-9.963609482423255	0	50.57845007805009	0.8827604844175569	-5.040540203513586	0	0	33.63190867467144	-9.963609482423255	0	50.57845007805009	0.8827604844175569	-5.040540203513586	0	0	9.370208086852422	-7.278945776485334	-7.281944461411858	0	-6.883331121241351	0	67.57855422797532	46.60114276047447	0	0	42.17578981332114	-34.56746620166572	29.93118426474508	6.234791334984855	46.60114276047447	0	0
7.16	1.343774070873195	-1.364631395947882	152.4775986557769	0	0.9399999999999999	0	33.80302827186162	-9.964907957767792	0	50.72061970212166	0.8852418124539285	-5.038808205469143	0	0	33.80302827186162	-9.964907957767792	0	50.72061970212166	0.8852418124539285	-5.038808205469143	0	0	9.395572238177326	-7.250149700174128	-7.26743020496102	0	-6.957315407514673	0	67.68962534273521	46.55243271226139	0	0	41.95562053584327	-35.49180620210343	25.01027034972802	10.36779566228929	46.55243271226139	0	0
7.17	1.344454969689499	-1.36754123602764	152.4905614104518	0	0.9399999999999999	0	33.86266004162006	-9.96536079009695	0	50.76943034972359	0.8860937189646128	-5.038205328490572	0	0	33.86266004162006	-9.96536079009695	0	50.76943034972359	0.8860937189646128	-5.038205328490572	0	0	9.394977907614644	-7.236057989376843	-7.271416791684337	0	-6.98300570818575	0	67.72832538232392	46.53543109702501	0	0	41.4642872729015	-35.32503354145209	22.02990829633076	12.55951888349346	46.53543109702501	0	0
7.18	1.352954219491542	-1.376197242650823	152.478527386848	0	0.9399999999999999	0	33.90611805806494	-9.965697387176098	0	50.80458420332906	0.8867072694547924	-5.037754724881556	0	0	33.90611805806494	-9.965697387176098	0	50.80458420332906	0.8867072694547924	-5.037754724881556	0	0	9.398976348515026	-7.219748866931512	-7.260447240387657	0	-7.001581017321532	0	67.75651968153477	46.52284996138275	0	0	40.95936687330105	-34.85331924625174	19.85720402654646	12.43935704178733	46.52284996138275	0	0
7.19	1.362826904350469	-1.379881962608857	152.471187268288	0	0.9399999999999999	0	34.0411027160535	-9.9667123460135	0	50.91612087654813	0.888653951639186	-5.036405652486557	0	0	34.0411027160535	-9.9667123460135	0	50.91612087654813	0.888653951639186	-5.036405652486557	0	0	9.391900333802658	-7.20593568647385	-7.25048492001399	0	-7.060110378664388	0	67.84414656443708	46.48468284182255	0	0	39.28617198516266	-33.2598959864446	11.89255931683644	12.95859872218701	46.48468284182255	0	0
7.2	1.368261682159753	-1.395221627674331	152.4466936866188	0	0.9399999999999999	0	34.12169131492738	-9.967299755962626	0	50.98234691712323	0.889809814097781	-5.035634746734644	0	0	34.12169131492738	-9.967299755962626	0	50.98234691712323	0.889809814097781	-5.035634746734644	0	0	9.392262534440103	-7.210340735762252	-7.240159388144315	0	-7.095265346703544	0	67.89647497424677	46.4623934220544	0	0	39.07736677299859	-33.03993796061002	10.67741068764782	14.65580832605203	46.4623934220544	0	0
7.21	1.369432032466477	-1.396294895647081	152.4540956137288	0	0.9399999999999999	0	34.16723738164224	-9.96763965577415	0	51.01922381277706	0.8904534373448546	-5.03518573182549	0	0	34.16723738164224	-9.96763965577415	0	51.01922381277706	0.8904534373448546	-5.03518573182549	0	0	9.379387375339258	-7.202887104655654	-7.243533029697181	0	-7.114947088649299	0	67.92603812111588	46.44956434757626	0	0	38.23130575304317	-31.26490003580027	8.198583125811535	14.94587454892902	46.44956434757626	0	0
7.22	1.350465618015883	-1.413047922845143	152.4551274633659	0	0.9399999999999999	0	34.16889546978252	-9.967656591571162	0	51.0203050739712	0.8904723089127665	-5.035161715219862	0	0	34.16889546978252	-9.967656591571162	0	51.0203050739712	0.8904723089127665	-5.035161715219862	0	0	9.347684790996047	-7.243031492108996	-7.22854779697026	0	-7.115555837304854	0	67.92710797543218	46.44896354720117	0	0	38.14205398688874	-31.03897660586599	7.91385918218682	14.5505750454846	46.44896354720117	0	0
7.23	1.356698127113401	-1.396850240832181	152.4604142542222	0	0.9399999999999999	0	34.17270539437852	-9.967695620308458	0	51.02278297606279	0.8905155564628068	-5.035106340790581	0	0	34.17270539437852	-9.967695620308458	0	51.02278297606279	0.8905155564628068	-5.035106340790581	0	0	9.325573010169125	-7.198349067962122	-7.228464291255305	0	-7.116951932784848	0	67.92956611513148	46.4475796787366	0	0	38.08571081871492	-31.23532865807607	7.416011292909141	14.61843192411094	46.4475796787366	0	0
7.24	1.376142965074982	-1.40651723077372	152.468855656449	0	0.9399999999999999	0	34.17601976489038	-9.967729538947959	0	51.0249390790167	0.8905531875583644	-5.035058235375161	0	0	34.17601976489038	-9.967729538947959	0	51.0249390790167	0.8905531875583644	-5.035058235375161	0	0	9.362208519831173	-7.191381076289345	-7.249864462254035	0	-7.118166798945189	0	67.9317045612424	46.4463766742485	0	0	38.09102295659499	-31.66380818518849	7.841097052276719	14.23524046232579	46.4463766742485	0	0
7.25	1.371023658498581	-1.3995762342193	152.4622693590019	0	0.9399999999999999	0	34.18067804894715	-9.967777207576358	0	51.02796759893415	0.8906060452023863	-5.034990644426797	0	0	34.18067804894715	-9.967777207576358	0	51.02796759893415	0.8906060452023863	-5.034990644426797	0	0	9.324120210100251	-7.188716119945695	-7.211866290278322	0	-7.119873727935714	0	67.93471009485053	46.44468579503228	0	0	37.99230183044593	-31.54473220923822	7.116970109483191	14.32380597692396	46.44468579503228	0	0
7.26	1.393735344181807	-1.412247934691532	152.4748217595195	0	0.9399999999999999	0	34.18390990192555	-9.967810217379654	0	51.03007067256509	0.890642750761658	-5.034943866002436	0	0	34.18390990192555	-9.967810217379654	0	51.03007067256509	0.890642750761658	-5.034943866002436	0	0	9.37872847324717	-7.182927170589853	-7.237891488627835	0	-7.121058943799354	0	67.93679536457769	46.44351436998078	0	0	38.09330730698792	-31.78077340397094	7.811093119693667	13.7701394239084	46.44351436998078	0	0
7.27	1.370243337199116	-1.419130225561571	152.4460226303598	0	0.9399999999999999	0	34.18917175934393	-9.967863973017582	0	51.03349162944135	0.8907024577227175	-5.034867703181219	0	0	34.18917175934393	-9.967863973017582	0	51.03349162944135	0.8907024577227175	-5.034867703181219	0	0	9.326850908183204	-7.193648872603831	-7.171056986854815	0	-7.122987602001479	0	67.94019040751402	46.44160658924335	0	0	38.35939609225159	-32.06378913645376	8.370936760530475	13.45327016367822	46.44160658924335	0	0
7.28	1.37118855032269	-1.417882014358088	152.4496827888872	0	0.9399999999999999	0	34.19353149597951	-9.967908449271627	0	51.03632730736141	0.8907519496389487	-5.03480472084664	0	0	34.19353149597951	-9.967908449271627	0	51.03632730736141	0.8907519496389487	-5.03480472084664	0	0	9.331814514130141	-7.181885955877251	-7.162914417627528	0	-7.124586370063096	0	67.94300345434226	46.44002754056806	0	0	38.46545697123454	-32.02382788679881	8.946889601121963	13.32556028075577	46.44002754056806	0	0
